<?xml version="1.0" encoding="UTF-8" standalone="no"?>
<svg
   aria-hidden="true"
   role="img"
   style="color: rgb(28, 32, 51);"
   width="64"
   height="64"
   viewBox="0 0 26 26"
   version="1.1"
   id="svg6"
   sodipodi:docname="CV.svg"
   inkscape:version="1.4.4 (dcaf3e7, 2026-05-05)"
   xmlns:inkscape="http://www.inkscape.org/namespaces/inkscape"
   xmlns:sodipodi="http://sodipodi.sourceforge.net/DTD/sodipodi-0.dtd"
   xmlns="http://www.w3.org/2000/svg"
   xmlns:svg="http://www.w3.org/2000/svg">
  <defs
     id="defs6" />
  <sodipodi:namedview
     id="namedview6"
     pagecolor="#ffffff"
     bordercolor="#000000"
     borderopacity="0.25"
     inkscape:showpageshadow="2"
     inkscape:pageopacity="0.0"
     inkscape:pagecheckerboard="0"
     inkscape:deskcolor="#d1d1d1"
     inkscape:zoom="29.484375"
     inkscape:cx="32.016958"
     inkscape:cy="32"
     inkscape:window-width="3840"
     inkscape:window-height="2126"
     inkscape:window-x="-11"
     inkscape:window-y="-11"
     inkscape:window-maximized="1"
     inkscape:current-layer="g6" />
  <g
     fill="none"
     id="g6">
    <defs
       id="defs5">
      <mask
         id="iconifyReact21">
        <path
           fill="#fff"
           d="M0 0h26v26H0z"
           id="path1" />
        <g
           fill="#000"
           id="g5">
          <path
             d="M10.8 9.35c.56 0 1.01-.45 1.01-1.01s-.45-1.01-1.01-1.01s-1.01.45-1.01 1.01s.45 1.01 1.01 1.01"
             id="path2" />
          <path
             fill-rule="evenodd"
             d="M12.83 11.55c0-1.08-.91-1.86-2.03-1.86s-2.03.78-2.03 1.86v.51c0 .09.04.18.1.24s.15.1.24.1h3.38c.09 0 .18-.04.24-.1s.1-.15.1-.24zM8.75 14.5a.75.75 0 0 1 .75-.75h7a.75.75 0 0 1 0 1.5h-7a.75.75 0 0 1-.75-.75m0 3a.75.75 0 0 1 .75-.75h7a.75.75 0 0 1 0 1.5h-7a.75.75 0 0 1-.75-.75"
             clip-rule="evenodd"
             id="path3" />
          <path
             fill-rule="evenodd"
             d="M5.5 5.5c0-1.102.898-2 2-2h6.69c.562 0 1.092.238 1.465.631l.006.007l4.312 4.702c.359.383.527.884.527 1.36v10.3c0 1.102-.898 2-2 2h-11c-1.102 0-2-.898-2-2zm8.689 0H7.5v15h11V10.192l-4.296-4.685l-.003-.001z"
             clip-rule="evenodd"
             id="path4" />
          <path
             fill-rule="evenodd"
             d="M14.19 3.5a1 1 0 0 1 1 1v4.7h4.31a1 1 0 1 1 0 2h-5.31a1 1 0 0 1-1-1V4.5a1 1 0 0 1 1-1"
             clip-rule="evenodd"
             id="path5" />
        </g>
      </mask>
    </defs>
    <circle
       cx="13"
       cy="13"
       r="13"
       fill="currentColor"
       mask="url(#iconifyReact21)"
       id="circle5"
       style="fill:#000000;fill-opacity:1" />
  </g>
</svg>
